Coordinates
version=1
nRows=14
nColumns=40
inDegrees=yes

Units are S.I. units (second, meters, Newtons, ...)
Angles are in degrees.

endheader
time	pelvis_tilt	pelvis_list	pelvis_rotation	pelvis_tx	pelvis_ty	pelvis_tz	hip_flexion_r	hip_adduction_r	hip_rotation_r	knee_angle_r	knee_angle_r_beta	ankle_angle_r	subtalar_angle_r	mtp_angle_r	hip_flexion_l	hip_adduction_l	hip_rotation_l	knee_angle_l	knee_angle_l_beta	ankle_angle_l	subtalar_angle_l	mtp_angle_l	lumbar_extension	lumbar_bending	lumbar_rotation	arm_flex_r	arm_add_r	arm_rot_r	elbow_flex_r	pro_sup_r	wrist_flex_r	wrist_dev_r	arm_flex_l	arm_add_l	arm_rot_l	elbow_flex_l	pro_sup_l	wrist_flex_l	wrist_dev_l
     22.53250000	     -4.57069863	     -4.16554263	     -0.44094828	      0.86062730	      0.92239327	      0.48168758	     21.69056725	      1.21844531	    -11.18436837	     20.66448668	     20.66448668	      5.05152030	     -5.55458305	     -4.38144562	      6.40106127	     -8.85506547	     -5.05127122	     38.86426392	     38.86426392	     12.98063765	    -14.00797747	     -8.07561874	     -8.76798920	      7.34231759	      0.21857192	      5.01760979	    -11.39229810	     -6.43126585	     30.96812885	     45.91974820	      0.00000000	      0.00000000	      8.98889883	    -13.09285029	    -15.33831047	     76.26760979	     48.06225137	      0.00000000	      0.00000000
     22.54571429	     -4.51871597	     -4.16266997	     -0.13094755	      0.86113863	      0.92346856	      0.48384727	     20.89934477	      1.28266542	    -11.64890149	     20.26370554	     20.26370554	      5.36763291	     -5.12052494	     -4.75493121	      8.31514747	     -9.15386255	     -4.06289495	     42.70293732	     42.70293732	     10.84463657	    -15.59112433	     -8.10680853	     -8.76632938	      7.31902261	      0.07529231	      6.40590971	    -11.61706553	     -5.86277849	     32.58686613	     45.82866312	      0.00000000	      0.00000000	      8.88741625	    -12.59320408	    -15.07941688	     72.77594032	     47.97740941	      0.00000000	      0.00000000
     22.55892857	     -4.41947627	     -4.29059057	      0.20637390	      0.86151629	      0.92439770	      0.48586215	     20.03846698	      1.45574998	    -12.26896707	     19.82350360	     19.82350360	      5.61126613	     -4.48161816	     -5.29746581	     10.37168518	     -9.57740019	     -3.06527708	     46.72195548	     46.72195548	      9.47012675	    -16.41498237	     -6.51686640	     -8.82069857	      7.46338138	      0.53463114	      7.06603155	    -12.30933676	     -4.68670195	     35.03440188	     45.66705290	      0.00000000	      0.00000000	      9.42307434	    -11.84284959	    -14.34711527	     68.67631123	     47.84764235	      0.00000000	      0.00000000
     22.57214286	     -4.39038641	     -4.44045349	      0.51370354	      0.86155042	      0.92508983	      0.48784962	     19.28193677	      1.67172855	    -12.86157015	     19.37561678	     19.37561678	      5.83083830	     -3.90533962	     -5.63442102	     12.64093338	     -9.95578618	     -2.05230995	     50.74290044	     50.74290044	      9.13053049	    -16.63275655	     -2.56243385	     -8.89257736	      7.60171088	      1.07928120	      7.66069208	    -13.13352348	     -3.36289226	     37.95659310	     45.49521015	      0.00000000	      0.00000000	      9.63194640	    -11.28117394	    -13.23225259	     65.38306100	     47.69423501	      0.00000000	      0.00000000
     22.58535714	     -4.33404581	     -4.56972759	      0.80482021	      0.86141519	      0.92572636	      0.48975545	     18.54719448	      1.85059910	    -13.49439290	     19.01516463	     19.01516463	      6.12482955	     -3.19888549	     -5.78580357	     14.78531563	    -10.28747346	     -1.15992491	     54.21600175	     54.21600175	      8.42935794	    -17.05789503	      0.11735500	     -8.99994503	      7.68514903	      0.94118841	      9.20308583	    -13.46352528	     -2.91638094	     39.68068452	     45.42688024	      0.00000000	      0.00000000	      9.25338143	    -10.96790270	    -12.71711973	     62.56977258	     47.59707004	      0.00000000	      0.00000000
     22.59857143	     -4.30173820	     -4.74436446	      1.09110277	      0.86107231	      0.92625920	      0.49161347	     17.83898783	      2.09836361	    -14.08911784	     18.61564812	     18.61564812	      6.40175272	     -2.56625284	     -5.83581635	     16.93635957	    -10.64361246	     -0.32471461	     57.26014556	     57.26014556	      8.03512353	    -17.38462375	      2.86101626	     -9.09379325	      7.78854805	      0.85050371	     10.72675454	    -13.79497172	     -2.54184012	     41.42144406	     45.36085702	      0.00000000	      0.00000000	      8.90690879	    -10.64398325	    -12.20197211	     59.59603836	     47.49992244	      0.00000000	      0.00000000
     22.61178571	     -4.30447674	     -4.89145283	      1.34802438	      0.86053382	      0.92673638	      0.49340054	     17.20754896	      2.32341668	    -14.63294181	     18.26464062	     18.26464062	      6.70613170	     -1.95249077	     -5.80966003	     19.08307415	    -10.97893595	      0.36609491	     59.82746116	     59.82746116	      8.20383804	    -17.47802734	      6.12968128	     -9.16769356	      7.87288301	      1.18246800	     11.96849142	    -14.34986409	     -2.02887103	     43.33803791	     45.28517742	      0.00000000	      0.00000000	      8.94175901	    -10.15669306	    -11.58590221	     56.32192316	     47.38681990	      0.00000000	      0.00000000
     22.62500000	     -4.29314214	     -5.01207727	      1.57916178	      0.85984146	      0.92723983	      0.49512136	     16.58673832	      2.54410908	    -15.04899803	     17.92433343	     17.92433343	      6.98146347	     -1.48103562	     -5.71812698	     21.08737697	    -11.28849416	      0.91726340	     61.72617718	     61.72617718	      8.34332000	    -17.67223811	      8.46649496	     -9.30437315	      7.89148356	      1.43565273	     13.36157302	    -14.81935278	     -1.67236855	     45.27183805	     45.22044071	      0.00000000	      0.00000000	      8.77617732	     -9.77532562	    -10.99780896	     53.33601761	     47.28067096	      0.00000000	      0.00000000
     22.63821429	     -4.31638815	     -5.11128725	      1.83584666	      0.85903147	      0.92776930	      0.49668385	     15.98398620	      2.75773954	    -15.41674653	     17.53303174	     17.53303174	      7.23586619	     -1.10828691	     -5.57846002	     23.02428924	    -11.51793031	      1.44388931	     62.96177645	     62.96177645	      8.55328799	    -17.90556882	     10.33340415	     -9.38916747	      7.88232281	      1.64724448	     14.68677043	    -15.27223234	     -1.35030407	     47.24401439	     45.16079123	      0.00000000	      0.00000000	      8.61704038	     -9.42434796	    -10.42682468	     50.17378902	     47.17261478	      0.00000000	      0.00000000
     22.65142857	     -4.30750942	     -5.16623628	      2.05413274	      0.85811659	      0.92839275	      0.49817877	     15.34344958	      2.95775924	    -15.62802091	     17.10066289	     17.10066289	      7.43731971	     -0.91747607	     -5.48379992	     24.74000609	    -11.76894458	      1.72103789	     63.45648198	     63.45648198	      8.63931812	    -18.14549399	     10.89038220	     -9.59163584	      7.84042709	      1.48861996	     16.48313525	    -15.36283234	     -1.36249526	     48.78703165	     45.12419818	      0.00000000	      0.00000000	      7.78769192	     -9.25537445	    -10.09896858	     48.17148149	     47.10320295	      0.00000000	      0.00000000
     22.66464286	     -4.36565325	     -5.24715508	      2.32227912	      0.85708112	      0.92892219	      0.49945670	     14.77359692	      3.18316609	    -15.83996048	     16.64045235	     16.64045235	      7.60473055	     -0.80661241	     -5.39148057	     26.43685069	    -11.94543636	      2.05697725	     63.32864796	     63.32864796	      8.81218437	    -18.36470090	     11.29328353	     -9.69169071	      7.79632751	      1.33774648	     18.25012626	    -15.44374552	     -1.37402888	     50.21177597	     45.08814156	      0.00000000	      0.00000000	      6.93080549	     -9.06745296	     -9.83088777	     46.32185446	     47.04406252	      0.00000000	      0.00000000
     22.67785714	     -4.39265754	     -5.15268696	      2.54443717	      0.85601251	      0.92961787	      0.50049459	     14.18036610	      3.21384844	    -15.95074303	     16.21598810	     16.21598810	      7.79865124	     -0.71380139	     -5.27870328	     27.89155035	    -11.88691554	      2.21683136	     62.55097327	     62.55097327	      9.52530712	    -18.44010660	     12.77091350	     -9.82428376	      7.62429490	      1.89780581	     19.19777038	    -16.24267421	     -0.80328141	     52.87344085	     45.00104829	      0.00000000	      0.00000000	      7.44873249	     -8.60686215	     -9.26569504	     41.72146827	     46.92719538	      0.00000000	      0.00000000
     22.69107143	     -4.44105917	     -5.07042080	      2.80199252	      0.85493391	      0.93026563	      0.50135590	     13.58010974	      3.27294152	    -16.00207558	     15.71460289	     15.71460289	      7.94076519	     -0.74743386	     -5.17336847	     29.15248830	    -11.78133961	      2.35191628	     61.06115228	     61.06115228	      9.84418984	    -18.54351410	     12.93330778	     -9.97872945	      7.43017423	      1.58126287	     20.97513342	    -16.13623130	     -0.99608690	     54.48918068	     44.96825534	      0.00000000	      0.00000000	      6.34727336	     -8.53250232	     -9.06461998	     40.28951502	     46.87401628	      0.00000000	      0.00000000
     22.70428571	     -4.53323166	     -4.97364554	      3.04129821	      0.85382144	      0.93084147	      0.50202373	     13.04643214	      3.30868013	    -15.99564655	     15.24706057	     15.24706057	      8.09627561	     -0.87358807	     -5.19885867	     30.23856357	    -11.60547601	      2.40959538	     58.94485611	     58.94485611	     10.19786763	    -18.55008294	     13.19797734	    -10.07812485	      7.24385575	      1.87672494	     21.92777447	    -16.71599360	     -0.87183696	     57.21524587	     44.90394739	      0.00000000	      0.00000000	      6.31090958	     -8.21428994	     -8.61131042	     37.02195772	     46.77497395	      0.00000000	      0.00000000
